<svg width="50" height="50" viewBox="0 0 50 50" fill="none" xmlns="http://www.w3.org/2000/svg">
<circle cx="25" cy="25" r="24" stroke="black" stroke-width="2"/>
<path d="M13.1178 23.718C13.1178 22.494 13.3938 21.396 13.9458 20.424C14.5098 19.44 15.2718 18.678 16.2318 18.138C17.1918 17.586 18.2538 17.31 19.4178 17.31C20.7498 17.31 21.9258 17.64 22.9458 18.3C23.9778 18.96 24.7278 19.89 25.1958 21.09H23.2338C22.8858 20.358 22.3818 19.794 21.7218 19.398C21.0618 18.99 20.2938 18.786 19.4178 18.786C18.5418 18.786 17.7498 18.99 17.0418 19.398C16.3458 19.794 15.7938 20.37 15.3858 21.126C14.9898 21.87 14.7918 22.734 14.7918 23.718C14.7918 24.702 14.9898 25.566 15.3858 26.31C15.7938 27.054 16.3458 27.63 17.0418 28.038C17.7498 28.434 18.5418 28.632 19.4178 28.632C20.6538 28.632 21.6678 28.266 22.4598 27.534C23.2518 26.79 23.7078 25.788 23.8278 24.528H18.8238V23.232H25.5738V24.492C25.4778 25.524 25.1538 26.472 24.6018 27.336C24.0498 28.188 23.3238 28.866 22.4238 29.37C21.5238 29.862 20.5218 30.108 19.4178 30.108C18.2538 30.108 17.1918 29.838 16.2318 29.298C15.2718 28.746 14.5098 27.984 13.9458 27.012C13.3938 26.04 13.1178 24.942 13.1178 23.718ZM32.0055 16.95C30.3255 16.95 29.1495 17.526 28.4775 18.678C27.8055 19.83 27.4695 21.426 27.4695 23.466C27.4695 25.506 27.8055 27.108 28.4775 28.272C29.1495 29.424 30.3255 30 32.0055 30C33.6735 30 34.8435 29.424 35.5155 28.272C36.1875 27.108 36.5235 25.506 36.5235 23.466C36.5235 21.426 36.1875 19.83 35.5155 18.678C34.8435 17.526 33.6735 16.95 32.0055 16.95ZM32.0055 18.444C32.8095 18.444 33.4215 18.666 33.8415 19.11C34.2735 19.542 34.5555 20.118 34.6875 20.838C34.8315 21.558 34.9035 22.434 34.9035 23.466C34.9035 24.51 34.8315 25.392 34.6875 26.112C34.5555 26.832 34.2735 27.414 33.8415 27.858C33.4215 28.29 32.8095 28.506 32.0055 28.506C31.1895 28.506 30.5655 28.29 30.1335 27.858C29.7135 27.414 29.4315 26.832 29.2875 26.112C29.1555 25.392 29.0895 24.51 29.0895 23.466C29.0895 22.434 29.1555 21.558 29.2875 20.838C29.4315 20.118 29.7135 19.542 30.1335 19.11C30.5655 18.666 31.1895 18.444 32.0055 18.444Z" fill="black"/>
</svg>
